<?xml version="1.0" encoding="UTF-8"?>
<svg version="1.1" xmlns="http://www.w3.org/2000/svg" width="512" height="512">
<path d="M0 0 C1.45108658 0.00273422 1.45108658 0.00273422 2.93148804 0.00552368 C17.26440977 0.05095174 31.21023917 0.55983928 45.3125 3.3125 C46.65803955 3.55395752 46.65803955 3.55395752 48.03076172 3.80029297 C107.84088904 14.62287989 165.35495829 48.68064457 202.3125 97.3125 C202.72918945 97.85277832 203.14587891 98.39305664 203.57519531 98.94970703 C211.2584873 108.9447116 218.00092968 119.40459036 224.3125 130.3125 C224.70679199 130.98974121 225.10108398 131.66698242 225.50732422 132.36474609 C238.68961173 155.2833756 247.29510918 180.85822563 252.625 206.6875 C252.77243652 207.39817627 252.91987305 208.10885254 253.07177734 208.84106445 C256.05713787 224.48358366 256.6873098 240.11919606 256.625 256 C256.62226578 257.45108658 256.62226578 257.45108658 256.61947632 258.93148804 C256.57404826 273.26440977 256.06516072 287.21023917 253.3125 301.3125 C253.15152832 302.20952637 252.99055664 303.10655273 252.82470703 304.03076172 C242.00212011 363.84088904 207.94435543 421.35495829 159.3125 458.3125 C158.77222168 458.72918945 158.23194336 459.14587891 157.67529297 459.57519531 C147.6802884 467.2584873 137.22040964 474.00092968 126.3125 480.3125 C125.63525879 480.70679199 124.95801758 481.10108398 124.26025391 481.50732422 C101.3416244 494.68961173 75.76677437 503.29510918 49.9375 508.625 C49.22682373 508.77243652 48.51614746 508.91987305 47.78393555 509.07177734 C32.14141634 512.05713787 16.50580394 512.6873098 0.625 512.625 C-0.34239105 512.62317719 -1.3097821 512.62135437 -2.30648804 512.61947632 C-16.63940977 512.57404826 -30.58523917 512.06516072 -44.6875 509.3125 C-45.58452637 509.15152832 -46.48155273 508.99055664 -47.40576172 508.82470703 C-107.21588904 498.00212011 -164.72995829 463.94435543 -201.6875 415.3125 C-202.10418945 414.77222168 -202.52087891 414.23194336 -202.95019531 413.67529297 C-210.6334873 403.6802884 -217.37592968 393.22040964 -223.6875 382.3125 C-224.08179199 381.63525879 -224.47608398 380.95801758 -224.88232422 380.26025391 C-238.06461173 357.3416244 -246.67010918 331.76677437 -252 305.9375 C-252.14743652 305.22682373 -252.29487305 304.51614746 -252.44677734 303.78393555 C-255.43213787 288.14141634 -256.0623098 272.50580394 -256 256.625 C-255.99817719 255.65760895 -255.99635437 254.6902179 -255.99447632 253.69351196 C-255.94904826 239.36059023 -255.44016072 225.41476083 -252.6875 211.3125 C-252.44604248 209.96696045 -252.44604248 209.96696045 -252.19970703 208.59423828 C-241.37712011 148.78411096 -207.31935543 91.27004171 -158.6875 54.3125 C-158.14722168 53.89581055 -157.60694336 53.47912109 -157.05029297 53.04980469 C-147.0552884 45.3665127 -136.59540964 38.62407032 -125.6875 32.3125 C-125.01025879 31.91820801 -124.33301758 31.52391602 -123.63525391 31.11767578 C-100.7166244 17.93538827 -75.14177437 9.32989082 -49.3125 4 C-48.60182373 3.85256348 -47.89114746 3.70512695 -47.15893555 3.55322266 C-31.51641634 0.56786213 -15.88080394 -0.0623098 0 0 Z " fill="#8ABFFE" transform="translate(255.6875,-0.3125)"/>
<path d="M0 0 C0 47.85 0 95.7 0 145 C-36.63 145 -73.26 145 -111 145 C-111 218.26 -111 291.52 -111 367 C-74.37 367 -37.74 367 0 367 C0 414.85 0 462.7 0 512 C-25.56087873 512 -25.56087873 512 -33.4375 510.8125 C-34.37883789 510.6779541 -35.32017578 510.5434082 -36.29003906 510.40478516 C-100.64562799 500.77602633 -162.25638419 467.29800708 -202 415 C-202.41668945 414.45972168 -202.83337891 413.91944336 -203.26269531 413.36279297 C-210.9459873 403.3677884 -217.68842968 392.90790964 -224 382 C-224.39429199 381.32275879 -224.78858398 380.64551758 -225.19482422 379.94775391 C-238.37711173 357.0291244 -246.98260918 331.45427437 -252.3125 305.625 C-252.45993652 304.91432373 -252.60737305 304.20364746 -252.75927734 303.47143555 C-255.74463787 287.82891634 -256.3748098 272.19330394 -256.3125 256.3125 C-256.31067719 255.34510895 -256.30885437 254.3777179 -256.30697632 253.38101196 C-256.26154826 239.04809023 -255.75266072 225.10226083 -253 211 C-252.75854248 209.65446045 -252.75854248 209.65446045 -252.51220703 208.28173828 C-241.68962011 148.47161096 -207.63185543 90.95754171 -159 54 C-158.45972168 53.58331055 -157.91944336 53.16662109 -157.36279297 52.73730469 C-147.3677884 45.0540127 -136.90790964 38.31157032 -126 32 C-125.32275879 31.60570801 -124.64551758 31.21141602 -123.94775391 30.80517578 C-85.88403842 8.91177063 -43.48697274 0 0 0 Z " fill="#BEDBFF" transform="translate(256,0)"/>
<path d="M0 0 C73.26 0 146.52 0 222 0 C222 73.26 222 146.52 222 222 C148.74 222 75.48 222 0 222 C0 148.74 0 75.48 0 0 Z " fill="#2D79CC" transform="translate(145,145)"/>
<path d="M0 0 C36.63 0 73.26 0 111 0 C111 73.26 111 146.52 111 222 C74.37 222 37.74 222 0 222 C0 148.74 0 75.48 0 0 Z " fill="#3897FF" transform="translate(145,145)"/>
</svg>
